HIERARCHY
ROOT Hips
{
  OFFSET 5.84602e-005 68.8428 3.50346
  CHANNELS 6 Xposition Yposition Zposition Zrotation Xrotation Yrotation
  JOINT Spine
  {
    OFFSET 0 8.597 -4.6522
    CHANNELS 3 Zrotation Xrotation Yrotation
    JOINT Spine1
    {
      OFFSET 0 7.8454 0.4098
      CHANNELS 3 Zrotation Xrotation Yrotation
      JOINT Spine2
      {
        OFFSET 0 9.7078 -2.1609
        CHANNELS 3 Zrotation Xrotation Yrotation
        JOINT Neck
        {
          OFFSET 0 21.8761 -0.4549
          CHANNELS 3 Zrotation Xrotation Yrotation
          JOINT Head
          {
            OFFSET 0 12.3537 3.3602
            CHANNELS 3 Zrotation Xrotation Yrotation
            End Site
            {
              OFFSET 0.0001 18.9506 0.5657
            }
          }
        }
        JOINT LeftShoulder
        {
          OFFSET 2.2086 21.1115 7.2329
          CHANNELS 3 Zrotation Xrotation Yrotation
          JOINT LeftArm
          {
            OFFSET 13.1193 3.0282 -4.8998
            CHANNELS 3 Zrotation Xrotation Yrotation
            JOINT LeftForeArm
            {
              OFFSET 27.4081 -0.0973053 -0.2375
              CHANNELS 3 Zrotation Xrotation Yrotation
              JOINT LeftHand
              {
                OFFSET 22.8641 0.0662994 -0.1369
                CHANNELS 3 Zrotation Xrotation Yrotation
                JOINT LeftHandIndex1
                {
                  OFFSET 8.8614 0.775009 2.4612
                  CHANNELS 3 Zrotation Xrotation Yrotation
                  JOINT LeftHandIndex2
                  {
                    OFFSET 3.3146 -0.808304 0.5841
                    CHANNELS 3 Zrotation Xrotation Yrotation
                    JOINT LeftHandIndex3
                    {
                      OFFSET 2.2628 -0.552002 0.3989
                      CHANNELS 3 Zrotation Xrotation Yrotation
                      End Site
                      {
                        OFFSET 1.6102 -0.4807 0.2612
                      }
                    }
                  }
                }
                JOINT LeftHandMiddle1
                {
                  OFFSET 8.9937 0.895004 0.2143
                  CHANNELS 3 Zrotation Xrotation Yrotation
                  JOINT LeftHandMiddle2
                  {
                    OFFSET 4.0984 0.0113983 -0.0242
                    CHANNELS 3 Zrotation Xrotation Yrotation
                    JOINT LeftHandMiddle3
                    {
                      OFFSET 2.2716 0.00689697 -0.0138001
                      CHANNELS 3 Zrotation Xrotation Yrotation
                      End Site
                      {
                        OFFSET 2.0404 -0.1441 0.0027
                      }
                    }
                  }
                }
                JOINT LeftHandRing1
                {
                  OFFSET 8.5234 0.597198 -2.0164
                  CHANNELS 3 Zrotation Xrotation Yrotation
                  JOINT LeftHandRing2
                  {
                    OFFSET 3.7188 -0.188293 -0.2328
                    CHANNELS 3 Zrotation Xrotation Yrotation
                    JOINT LeftHandRing3
                    {
                      OFFSET 2.1191 -0.106598 -0.1332
                      CHANNELS 3 Zrotation Xrotation Yrotation
                      End Site
                      {
                        OFFSET 1.8737 -0.2304 -0.0886
                      }
                    }
                  }
                }
                JOINT LeftHandPinky1
                {
                  OFFSET 7.9094 -0.601089 -3.4825
                  CHANNELS 3 Zrotation Xrotation Yrotation
                  JOINT LeftHandPinky2
                  {
                    OFFSET 2.2874 -0.477005 -0.6314
                    CHANNELS 3 Zrotation Xrotation Yrotation
                    JOINT LeftHandPinky3
                    {
                      OFFSET 1.6774 -0.349396 -0.4633
                      CHANNELS 3 Zrotation Xrotation Yrotation
                      End Site
                      {
                        OFFSET 1.4888 -0.4091 -0.3416
                      }
                    }
                  }
                }
                JOINT LeftHandThumb1
                {
                  OFFSET 1.833 -1.3875 1.3896
                  CHANNELS 3 Zrotation Xrotation Yrotation
                  JOINT LeftHandThumb2
                  {
                    OFFSET 3.4129 -1.121 2.5732
                    CHANNELS 3 Zrotation Xrotation Yrotation
                    JOINT LeftHandThumb3
                    {
                      OFFSET 2.2474 -0.804199 1.6192
                      CHANNELS 3 Zrotation Xrotation Yrotation
                      End Site
                      {
                        OFFSET 1.6527 -0.5689 1.1317
                      }
                    }
                  }
                }
              }
            }
          }
        }
        JOINT RightShoulder
        {
          OFFSET -2.2086 21.1115 7.2329
          CHANNELS 3 Zrotation Xrotation Yrotation
          JOINT RightArm
          {
            OFFSET -13.1216 3.0287 -4.9007
            CHANNELS 3 Zrotation Xrotation Yrotation
            JOINT RightForeArm
            {
              OFFSET -27.4081 -0.0973053 -0.2375
              CHANNELS 3 Zrotation Xrotation Yrotation
              JOINT RightHand
              {
                OFFSET -22.8641 0.0664063 -0.1369
                CHANNELS 3 Zrotation Xrotation Yrotation
                JOINT RightHandIndex1
                {
                  OFFSET -8.8614 0.774994 2.4612
                  CHANNELS 3 Zrotation Xrotation Yrotation
                  JOINT RightHandIndex2
                  {
                    OFFSET -3.3146 -0.808304 0.5841
                    CHANNELS 3 Zrotation Xrotation Yrotation
                    JOINT RightHandIndex3
                    {
                      OFFSET -2.2628 -0.552002 0.3989
                      CHANNELS 3 Zrotation Xrotation Yrotation
                      End Site
                      {
                        OFFSET -1.6102 -0.4807 0.2612
                      }
                    }
                  }
                }
                JOINT RightHandMiddle1
                {
                  OFFSET -8.9937 0.894989 0.2143
                  CHANNELS 3 Zrotation Xrotation Yrotation
                  JOINT RightHandMiddle2
                  {
                    OFFSET -4.0984 0.0113983 -0.0242
                    CHANNELS 3 Zrotation Xrotation Yrotation
                    JOINT RightHandMiddle3
                    {
                      OFFSET -2.2716 0.00691223 -0.0138001
                      CHANNELS 3 Zrotation Xrotation Yrotation
                      End Site
                      {
                        OFFSET -2.0404 -0.1441 0.0027
                      }
                    }
                  }
                }
                JOINT RightHandRing1
                {
                  OFFSET -8.5234 0.597198 -2.0164
                  CHANNELS 3 Zrotation Xrotation Yrotation
                  JOINT RightHandRing2
                  {
                    OFFSET -3.7188 -0.188309 -0.2328
                    CHANNELS 3 Zrotation Xrotation Yrotation
                    JOINT RightHandRing3
                    {
                      OFFSET -2.1191 -0.106598 -0.1332
                      CHANNELS 3 Zrotation Xrotation Yrotation
                      End Site
                      {
                        OFFSET -1.8737 -0.2304 -0.0886
                      }
                    }
                  }
                }
                JOINT RightHandPinky1
                {
                  OFFSET -7.9094 -0.601105 -3.4825
                  CHANNELS 3 Zrotation Xrotation Yrotation
                  JOINT RightHandPinky2
                  {
                    OFFSET -2.2874 -0.477005 -0.6314
                    CHANNELS 3 Zrotation Xrotation Yrotation
                    JOINT RightHandPinky3
                    {
                      OFFSET -1.6774 -0.349396 -0.4633
                      CHANNELS 3 Zrotation Xrotation Yrotation
                      End Site
                      {
                        OFFSET -1.4888 -0.4091 -0.3416
                      }
                    }
                  }
                }
                JOINT RightHandThumb1
                {
                  OFFSET -1.833 -1.38751 1.3896
                  CHANNELS 3 Zrotation Xrotation Yrotation
                  JOINT RightHandThumb2
                  {
                    OFFSET -3.41299 -1.12099 2.5732
                    CHANNELS 3 Zrotation Xrotation Yrotation
                    JOINT RightHandThumb3
                    {
                      OFFSET -2.24741 -0.804108 1.6192
                      CHANNELS 3 Zrotation Xrotation Yrotation
                      End Site
                      {
                        OFFSET -1.6527 -0.5689 1.1317
                      }
                    }
                  }
                }
              }
            }
          }
        }
      }
    }
  }
  JOINT RightUpLeg
  {
    OFFSET -9.1966 3.8861 -0.7581
    CHANNELS 3 Zrotation Xrotation Yrotation
    JOINT RightLeg
    {
      OFFSET -0.7359 -41.0265 0
      CHANNELS 3 Zrotation Xrotation Yrotation
      JOINT RightFoot
      {
        OFFSET 0 -40.2855 0
        CHANNELS 3 Zrotation Xrotation Yrotation
        JOINT RightToeBase
        {
          OFFSET 0 -5.6122 11.7359
          CHANNELS 3 Zrotation Xrotation Yrotation
          End Site
          {
            OFFSET 0 0 7.8731
          }
        }
      }
    }
  }
  JOINT LeftUpLeg
  {
    OFFSET 9.1965 3.8864 -0.7581
    CHANNELS 3 Zrotation Xrotation Yrotation
    JOINT LeftLeg
    {
      OFFSET 0.7359 -41.0268 0
      CHANNELS 3 Zrotation Xrotation Yrotation
      JOINT LeftFoot
      {
        OFFSET 0 -40.2855 0
        CHANNELS 3 Zrotation Xrotation Yrotation
        JOINT LeftToeBase
        {
          OFFSET 0 -5.6122 11.7359
          CHANNELS 3 Zrotation Xrotation Yrotation
          End Site
          {
            OFFSET 0 0 7.8731
          }
        }
      }
    }
  }
}
MOTION
Frames:	5
Frame Time:	0.0333333
7.39685e-005 3.57171 8.60568 -0 -82.0004 -0 -0.0186417 -3.06723 -0.152809 -0.0455874 -6.13441 -0.307281 -0.0455873 -6.13439 -0.307281 9.03251e-007 17.9984 1.0224e-006 18.589 8.90909 3.75293 -15.833 14.1707 3.82501 -68.6813 -7.3515 -52.8354 -15.397 34.8763 0.357525 -42.3439 -22.8118 8.38364 1.35288e-006 -6.67783e-007 -6.77296e-007 1.02412e-006 -4.81808e-007 -4.69628e-007 6.36111e-015 4.77083e-015 3.18055e-015 1.35288e-006 -6.67783e-007 -6.77296e-007 -0.0146266 -8.80819e-005 -2.28717e-006 6.36111e-015 0 9.54166e-015 1.35288e-006 -6.67783e-007 -6.77296e-007 -0.018739 -0.00117418 5.85864e-005 9.54166e-015 -6.36111e-015 -3.18055e-015 1.35288e-006 -6.67783e-007 -6.77296e-007 -0.0122753 -0.00324861 0.000671795 -3.18055e-015 1.59028e-014 3.18055e-015 1.35288e-006 -6.67783e-007 -6.77296e-007 1.02412e-006 -4.81808e-007 -4.69628e-007 6.36111e-015 4.77083e-015 3.18055e-015 15.8298 14.1703 -3.8281 68.6775 -7.3555 52.832 15.3927 34.8764 -0.357744 42.3393 -22.8128 -8.3879 2.69215e-006 1.32139e-006 -1.37115e-006 -3.18055e-015 -9.54166e-015 3.18055e-015 2.69215e-006 1.32139e-006 -1.37115e-006 2.69215e-006 1.32139e-006 -1.37115e-006 0.0150008 -9.82539e-005 -1.92085e-006 2.69226e-006 1.32121e-006 -1.37133e-006 2.69215e-006 1.32139e-006 -1.37115e-006 0.0190142 -0.00119081 -5.97486e-005 2.69228e-006 1.32115e-006 -1.3714e-006 2.69215e-006 1.32139e-006 -1.37115e-006 0.012258 -0.00324646 -0.000675811 2.69219e-006 1.32123e-006 -1.37137e-006 2.69215e-006 1.32139e-006 -1.37115e-006 -3.18055e-015 -9.54166e-015 3.18055e-015 2.69215e-006 1.32139e-006 -1.37115e-006 -17.0374 -15.0362 -50.8061 -1.96826 48.7663 -0.101753 -4.21064 14.2077 0.926963 -4.27141e-006 7.15693e-007 2.69713e-006 17.0336 -15.0381 50.8018 1.96528 48.7669 0.0991808 4.20793 14.2075 -0.930156 3.47785e-006 -1.32403e-006 4.17534e-007 
-0.000116891 3.71968 8.60627 -0 -82.0004 -0 -0.0179712 -3.19705 -0.152756 -0.0445994 -6.39403 -0.307238 -0.0445995 -6.39403 -0.307238 1.45167e-006 17.9982 -2.84824e-006 18.4652 8.90572 3.72803 -15.6302 14.8619 4.39888 -68.9199 -7.04866 -52.94 -15.6008 34.8659 0.356864 -42.3439 -22.8118 8.38364 -1.35303e-006 6.67062e-007 6.78683e-007 3.18055e-015 7.95139e-015 -3.18055e-015 -1.35303e-006 6.67062e-007 6.78683e-007 -1.35303e-006 6.67062e-007 6.78683e-007 -0.0145956 -8.63583e-005 3.70621e-006 -1.35308e-006 6.66975e-007 6.78769e-007 -1.35303e-006 6.67062e-007 6.78683e-007 -0.0187585 -0.00117736 6.04299e-005 -1.35309e-006 6.66947e-007 6.78807e-007 -1.35303e-006 6.67062e-007 6.78683e-007 -0.0122638 -0.00324841 0.000676347 -1.35305e-006 6.66985e-007 6.78795e-007 -1.35303e-006 6.67062e-007 6.78683e-007 3.18055e-015 7.95139e-015 -3.18055e-015 -1.35303e-006 6.67062e-007 6.78683e-007 15.6113 14.8505 -4.42255 68.9206 -7.04488 52.9376 15.6025 34.864 -0.357021 42.3393 -22.8128 -8.38791 -1.37309e-006 -4.012e-006 4.88515e-007 0 1.59028e-015 -0 -1.37309e-006 -4.012e-006 4.88514e-007 -1.37309e-006 -4.012e-006 4.88515e-007 0.0150006 -9.07212e-005 -8.96011e-007 -1.37339e-006 -4.01194e-006 4.89041e-007 -1.37309e-006 -4.012e-006 4.88515e-007 0.0189996 -0.0011908 -6.57114e-005 -1.37346e-006 -4.0119e-006 4.89195e-007 -1.37309e-006 -4.012e-006 4.88515e-007 0.0122505 -0.00324529 -0.000669575 -1.3733e-006 -4.0119e-006 4.88996e-007 -1.37309e-006 -4.012e-006 4.88515e-007 0 1.59028e-015 -0 -1.37309e-006 -4.012e-006 4.88514e-007 -16.7333 -15.0256 -50.0264 -1.96809 48.763 -0.0880751 -3.63509 14.2145 0.247421 -4.47158e-006 5.14052e-006 -1.20281e-006 16.8364 -14.93 50.3036 1.96492 48.7602 0.0901169 3.83976 14.1924 -0.537409 2.34625e-007 3.51404e-006 -3.48855e-007 
-0.000342898 3.90466 8.60703 -0 -82.0004 -0 -0.0171298 -3.35957 -0.152728 -0.0433604 -6.71907 -0.30726 -0.0433605 -6.71905 -0.307259 8.45342e-007 17.9983 -4.43378e-007 18.3412 8.90238 3.70313 -15.3881 15.7282 5.11741 -69.217 -6.67001 -53.0699 -15.8556 34.8527 0.355999 -42.3439 -22.8118 8.38362 3.04795e-007 -1.92835e-007 -2.05525e-007 -3.18055e-015 3.18055e-015 -0 1.35325e-006 -6.65997e-007 -6.8046e-007 3.04795e-007 -1.92835e-007 -2.05525e-007 -0.014598 -8.56788e-005 -1.70802e-006 3.03709e-007 -1.92815e-007 -2.0555e-007 3.04795e-007 -1.92835e-007 -2.05525e-007 -0.0187374 -0.00117844 5.67978e-005 1.35331e-006 -6.65882e-007 -6.80583e-007 3.04795e-007 -1.92835e-007 -2.05525e-007 -0.0122769 -0.00324585 0.000673632 1.35327e-006 -6.65921e-007 -6.80572e-007 3.04795e-007 -1.92835e-007 -2.05525e-007 -3.18055e-015 3.18055e-015 -0 1.35325e-006 -6.65997e-007 -6.8046e-007 15.3496 15.7033 -5.16669 69.2234 -6.6566 53.0687 15.8647 34.8484 -0.356105 42.3393 -22.8128 -8.3879 2.69313e-006 1.31669e-006 -1.37771e-006 3.18055e-015 -1.59028e-015 -3.18055e-015 6.36111e-015 4.77083e-015 -3.18055e-015 2.69313e-006 1.31669e-006 -1.37771e-006 0.0149914 -9.74381e-005 -1.61882e-006 -3.18055e-015 -1.59028e-015 3.18055e-015 2.69313e-006 1.31669e-006 -1.37771e-006 0.0189749 -0.00119728 -6.20589e-005 -3.18055e-015 0 3.18055e-015 2.69313e-006 1.31669e-006 -1.37771e-006 0.0122709 -0.00324954 -0.000669325 3.18055e-015 -3.18055e-015 -9.54166e-015 2.69313e-006 1.31669e-006 -1.37771e-006 3.18055e-015 -1.59028e-015 -3.18055e-015 6.36111e-015 4.77083e-015 -3.18055e-015 -16.3539 -15.0055 -49.0514 -1.96784 48.7585 -0.0708806 -2.91516 14.215 -0.602685 -3.47541e-006 -1.32423e-006 -4.29625e-007 16.5918 -14.7914 49.6815 1.96445 48.7516 0.0787677 3.37975 14.1705 -0.0465027 3.30102e-006 9.66266e-007 1.43109e-006 
-0.000535553 4.07115 8.60773 -0 -82.0004 -0 -0.0163698 -3.50611 -0.15276 -0.0422445 -7.01219 -0.307391 -0.0422444 -7.01219 -0.307391 4.09406e-006 17.9987 -4.88394e-007 18.2173 8.89908 3.67821 -15.1778 16.5117 5.76369 -69.4836 -6.32841 -53.1846 -16.0849 34.8406 0.35521 -42.3439 -22.8118 8.38362 -1.35346e-006 6.64939e-007 6.82103e-007 -1.35346e-006 6.64939e-007 6.82103e-007 -1.35346e-006 6.64939e-007 6.82103e-007 -1.35346e-006 6.64939e-007 6.82103e-007 -0.01459 -8.70122e-005 4.42075e-006 -1.35351e-006 6.64852e-007 6.82188e-007 -1.35346e-006 6.64939e-007 6.82103e-007 -0.0187434 -0.00117379 6.00832e-005 -1.35352e-006 6.64824e-007 6.82225e-007 -1.35346e-006 6.64939e-007 6.82103e-007 -0.0122732 -0.0032514 0.000680086 -1.35348e-006 6.64862e-007 6.82215e-007 -1.35346e-006 6.64939e-007 6.82103e-007 -1.35346e-006 6.64939e-007 6.82103e-007 -1.35346e-006 6.64939e-007 6.82103e-007 15.1218 16.475 -5.8359 69.4951 -6.3062 53.1844 16.1007 34.8342 -0.355273 42.3393 -22.8128 -8.3879 1.76556e-031 1.59028e-015 -6.36111e-015 6.36111e-015 6.36111e-015 -6.36111e-015 3.18055e-015 3.18055e-015 -3.18055e-015 1.76556e-031 1.59028e-015 -6.36111e-015 0.0150133 -8.87475e-005 2.88038e-006 5.29669e-031 -9.54166e-015 3.18055e-015 1.76556e-031 1.59028e-015 -6.36111e-015 0.0189862 -0.00119059 -5.2873e-005 1.004e-006 3.66111e-007 -4.36367e-007 1.76556e-031 1.59028e-015 -6.36111e-015 0.012274 -0.00324792 -0.000670147 -6.36111e-015 -3.18055e-015 3.18055e-015 1.76556e-031 1.59028e-015 -6.36111e-015 6.36111e-015 6.36111e-015 -6.36111e-015 3.18055e-015 3.18055e-015 -3.18055e-015 -16.0122 -14.9824 -48.1734 -1.96763 48.7543 -0.0551562 -2.26682 14.2059 -1.36856 3.82499e-006 -7.4464e-007 -7.98962e-006 16.3728 -14.6647 49.1223 1.96405 48.7437 0.0684963 2.96589 14.1474 0.39528 7.71077e-006 3.05173e-007 1.99898e-006 
-0.000717638 4.23765 8.60845 -0 -82.0004 -0 -0.0156105 -3.65285 -0.152835 -0.0411336 -7.30563 -0.307611 -0.0411336 -7.30564 -0.307611 -8.6404e-007 17.9988 1.16426e-006 18.0934 8.89585 3.65328 -14.9758 17.298 6.41013 -69.7493 -5.98619 -53.2977 -16.3142 34.8283 0.354442 -42.3439 -22.8118 8.38364 -3.78102e-006 1.79043e-006 1.84597e-006 6.36111e-015 0 3.18055e-015 -3.18055e-015 -7.95139e-015 -0 -3.78102e-006 1.79043e-006 1.84597e-006 -0.0146361 -8.91368e-005 1.71407e-006 -3.18055e-015 -1.90833e-014 -3.18055e-015 -3.78102e-006 1.79043e-006 1.84597e-006 -0.0187547 -0.00118069 6.04526e-005 -7.06225e-031 6.36111e-015 6.36111e-015 -3.78102e-006 1.79043e-006 1.84597e-006 -0.0122832 -0.00325198 0.000683604 -0 -7.95139e-015 -0 -3.78102e-006 1.79043e-006 1.84597e-006 6.36111e-015 0 3.18055e-015 -3.18055e-015 -7.95139e-015 -0 14.9023 17.2498 -6.50515 69.7659 -5.95521 53.2984 16.3368 34.8198 -0.354429 42.3393 -22.8128 -8.38791 -3.18055e-015 -3.18055e-015 -3.18055e-015 1.01538e-006 3.59863e-007 -4.36241e-007 6.36111e-015 3.18055e-015 -6.36111e-015 -3.18055e-015 -3.18055e-015 -3.18055e-015 0.0150101 -8.90447e-005 2.59991e-006 3.18055e-015 1.11319e-014 -0 -3.18055e-015 -3.18055e-015 -3.18055e-015 0.0190047 -0.001191 -5.86419e-005 -9.54166e-015 -6.36111e-015 -3.18055e-015 -3.18055e-015 -3.18055e-015 -3.18055e-015 0.0122568 -0.00324947 -0.000677851 -6.36111e-015 1.59028e-015 -0 -3.18055e-015 -3.18055e-015 -3.18055e-015 1.01538e-006 3.59863e-007 -4.36241e-007 6.36111e-015 3.18055e-015 -6.36111e-015 -15.6708 -14.9542 -47.2954 -1.9674 48.7499 -0.0392929 -1.61842 14.1884 -2.1348 -3.47303e-006 -1.32422e-006 -4.41733e-007 16.1551 -14.536 48.5639 1.96363 48.7357 0.0582054 2.55224 14.1211 0.836981 5.91185e-006 -1.52138e-006 -2.07256e-006 
